<svg version="1.1" xmlns="http://www.w3.org/2000/svg" xmlns:xlink="http://www.w3.org/1999/xlink" x="0px" y="0px"
	 viewBox="0 0 12.255 9.119" enable-background="new 0 0 12.255 9.119" xml:space="preserve">
<path d="M1.32,1.935H0V0h3.54v9H1.32V1.935z"/>
<path d="M12.254,5.984c-0.03,1.83-1.635,3.15-3.479,3.135C6.884,9.104,5.37,7.709,5.4,5.895c0.015-0.705,0.314-1.35,0.689-1.92
	L8.865,0h2.489l-2.04,2.73C9.389,2.745,9.45,2.745,9.509,2.76C11.129,3.045,12.285,4.425,12.254,5.984z M8.865,4.62
	c-0.78-0.015-1.261,0.555-1.29,1.291c-0.03,0.719,0.42,1.334,1.215,1.35c0.765,0.029,1.29-0.555,1.305-1.275
	C10.11,5.25,9.644,4.635,8.865,4.62z"/>
</svg>
