<svg version="1.1" id="Layer_1" xmlns="http://www.w3.org/2000/svg" xmlns:xlink="http://www.w3.org/1999/xlink" x="0px" y="0px"
	 width="85.04px" height="85.04px" viewBox="0 0 85.04 85.04" enable-background="new 0 0 85.04 85.04" xml:space="preserve">
<path d="M9.16,24.308H0V10.881h24.565v62.453H9.16V24.308z"/>
	<path d="M85.04,54.807c0,11.43-9.663,20.054-22.963,20.054c-13.196,0-22.756-8.624-22.756-20.054c0-6.65,3.221-12.158,8.521-15.483
		c-3.014-2.909-4.779-6.857-4.779-11.429c0-9.664,8-17.041,19.015-17.041c11.117,0,19.014,7.377,19.014,17.041
		c0,4.572-1.766,8.52-4.778,11.325C81.714,42.649,85.04,48.157,85.04,54.807z M69.557,53.56c0-4.364-3.115-7.274-7.48-7.274
		c-4.26,0-7.377,2.91-7.377,7.274c0,4.468,3.117,7.896,7.377,7.896C66.442,61.457,69.557,58.028,69.557,53.56z M55.842,29.038
		c0,3.637,2.701,6.339,6.338,6.339c3.533,0,6.234-2.702,6.234-6.339s-2.701-6.339-6.234-6.339
		C58.543,22.699,55.842,25.401,55.842,29.038z"/>
</svg>
