<svg version="1.1" id="svg_19" xmlns="http://www.w3.org/2000/svg" xmlns:xlink="http://www.w3.org/1999/xlink" x="0px" y="0px"
	 width="85.04px" height="85.04px" viewBox="0 0 85.04 85.04" style="enable-background:new 0 0 85.04 85.04;" xml:space="preserve"
	>
<path d="M9.16,24.308H0V10.881h24.565v62.454H9.16V24.308z"/>
<g>
	<path d="M85.036,33.424c-0.104,4.928-2.306,9.437-4.822,13.42L60.712,74.627h-17.3l14.259-19.08c-0.524,0-1.049-0.106-1.468-0.21
		C44.88,53.344,36.913,43.7,37.122,32.795C37.227,20.003,48.55,10.777,61.34,10.882C74.551,10.987,85.247,20.738,85.036,33.424z
		 M61.34,23.883c-5.451-0.21-9.016,3.879-9.226,8.912c-0.104,5.138,3.146,9.332,8.702,9.541c5.452,0.209,8.912-3.879,9.017-9.017
		C69.939,28.287,66.793,23.988,61.34,23.883z"/>
</g>
</svg>
