<svg version="1.1" id="svg19" xmlns="http://www.w3.org/2000/svg" xmlns:xlink="http://www.w3.org/1999/xlink" x="0px" y="0px"
	 width="104.25px" height="85.04px" viewBox="-10.73 0 104.25 85.04" enable-background="new -10.73 0 104.25 85.04"
	 xml:space="preserve">
<path fill="#FFFFFF" d="M9.548,24.734h-9.16V11.307h24.565V73.76H9.548V24.734z"/>
<path fill="#FFFFFF" d="M85.423,33.85c-0.104,4.928-2.306,9.437-4.821,13.42L61.1,75.053H43.801l14.258-19.08
	c-0.523,0-1.049-0.106-1.467-0.211C45.268,53.77,37.301,44.125,37.51,33.221c0.105-12.792,11.428-22.018,24.219-21.913
	C74.94,11.413,85.634,21.164,85.423,33.85z M61.729,24.309c-5.451-0.21-9.016,3.879-9.227,8.912
	c-0.104,5.138,3.146,9.332,8.701,9.541c5.453,0.209,8.912-3.879,9.018-9.017C70.327,28.713,67.182,24.414,61.729,24.309z"/>
</svg>
