<svg version="1.1" id="svg20" xmlns="http://www.w3.org/2000/svg" xmlns:xlink="http://www.w3.org/1999/xlink" x="0px" y="0px"
	 width="104.25px" height="85.04px" viewBox="-10.73 0 104.25 85.04" enable-background="new -10.73 0 104.25 85.04"
	 xml:space="preserve">
<path d="M38.147,60.407v13.397H-7.757l23.991-32.195c5.92-7.997,6.438-9.451,6.438-11.84c0-4.881-3.427-5.712-5.504-5.712
	c-3.323,0-5.92,2.493-5.089,6.647H-2.668c-1.246-11.84,9.14-20.148,20.564-20.148c11.112,0,19.525,7.686,19.421,17.967
	c-0.104,7.27-2.597,11.32-10.282,21.499l-7.997,10.385H38.147z"/>
<path d="M43.731,42.647c0-19.213,7.788-31.987,23.679-31.987c15.682,0,23.472,12.774,23.472,31.987
	c0,19.214-7.79,31.988-23.472,31.988C51.519,74.635,43.731,61.862,43.731,42.647z M75.51,42.647c0-11.32-1.558-18.59-8.101-18.59
	c-6.75,0-8.309,7.27-8.309,18.59c0,11.321,1.559,18.59,8.309,18.59C73.953,61.238,75.51,53.968,75.51,42.647z"/>
</svg>
