<svg version="1.1" id="svg21" xmlns="http://www.w3.org/2000/svg" xmlns:xlink="http://www.w3.org/1999/xlink" x="0px" y="0px"
	 viewBox="0 0 104.2 85" style="enable-background:new 0 0 104.2 85;" xml:space="preserve">
<style type="text/css">
	.st0{fill:#FFFFFF;}
</style>
<path class="st0" d="M54.4,61.1v13.7H7.6l24.5-32.8c6-8.2,6.6-9.6,6.6-12.1c0-5-3.5-5.8-5.6-5.8c-3.4,0-6,2.5-5.2,6.8h-15
	c-1.3-12.1,9.3-20.6,21-20.6c11.3,0,19.9,7.8,19.8,18.3c-0.1,7.4-2.7,11.5-10.5,21.9l-8.2,10.6H54.4z"/>
<path class="st0" d="M103.9,61.1v13.7H57.1l24.5-32.8c6-8.2,6.6-9.6,6.6-12.1c0-5-3.5-5.8-5.6-5.8c-3.4,0-6,2.5-5.2,6.8h-15
	c-1.3-12.1,9.3-20.6,21-20.6c11.3,0,19.9,7.8,19.8,18.3c-0.1,7.4-2.7,11.5-10.5,21.9l-8.2,10.6H103.9z"/>
</svg>
