<svg width="390" height="90" viewBox="0 0 390 90" fill="none" xmlns="http://www.w3.org/2000/svg">
						<path d="M343.299 19.3001H349.899C353.099 19.3001 355.799 17.4001 356.999 14.7001H369.199C369.999 17.4001 372.499 19.3001 375.399 19.3001C375.499 19.3001 375.499 19.3001 375.599 19.3001H382.199V45.1001C386.599 40.4001 389.199 34.1001 389.199 27.1001C389.199 12.5001 377.299 0.600098 362.699 0.600098C348.099 0.600098 336.199 12.5001 336.199 27.1001C336.199 34.0001 338.899 40.3001 343.199 45.1001V19.3001H343.299Z" fill="white"></path>
						<path d="M362.8 24C360.5 24 358.6 25.9 358.6 28.2V39.1H367V28.2C367 25.9 365.1 24 362.8 24Z" fill="white"></path>
						<path d="M351.7 24C349.4 24 347.5 25.9 347.5 28.2V39.1H355.9V28.2C355.9 25.9 354 24 351.7 24Z" fill="white"></path>
						<path d="M374 24C371.7 24 369.8 25.9 369.8 28.2V39.1H378.2V28.2C378.2 25.9 376.3 24 374 24Z" fill="white"></path>
						<path d="M315.6 41.9003V28.9003H328.1V28.1003H315.6V15.5003H331.3V14.7003H312V42.7003H331.7V41.9003H315.6V41.9003ZM288.4 15.5003H295.2C299.5 15.5003 302.3 18.3003 302.3 22.7003C302.3 27.1003 299.5 29.9003 295.2 29.9003H288.4V15.5003ZM305.5 39.7003L301.9 33.6003C301.1 32.2003 299.5 31.2003 297.6 30.6003C302.5 30.0003 306 26.8003 306 22.7003C306 18.1003 301.6 14.7003 295.8 14.7003H284.8V42.7003H288.4V30.7003H295.2C296.2 31.2003 297.1 32.0003 297.6 32.9003L301.8 40.3003C302.3 41.1003 303 42.0003 303.9 42.6003H308C307.2 42.1003 306.2 40.9003 305.5 39.7003ZM273.9 42.7003H277.5V14.7003H273.9V42.7003ZM253.7 42.3003C247.2 42.3003 242.9 36.9003 242.9 28.7003C242.9 20.5003 247.2 15.1003 253.7 15.1003C260.3 15.1003 264.6 20.5003 264.6 28.7003C264.6 36.9003 260.2 42.3003 253.7 42.3003ZM253.7 43.1003C262.1 43.1003 268.3 36.9003 268.3 28.7003C268.3 20.5003 262.1 14.3003 253.7 14.3003C245.4 14.3003 239.2 20.5003 239.2 28.7003C239.2 36.9003 245.3 43.1003 253.7 43.1003ZM238.8 14.7003H216.4V15.5003H225.9V42.7003H229.5V15.5003H238.9V14.7003H238.8ZM197.4 33.6003L204.1 18.4003L210.7 33.6003H197.4ZM214.7 42.7003H218.4L206.2 14.7003H204.6L192.3 42.7003H193.4L197 34.4003H211L214.7 42.7003ZM193.2 14.7003L182.6 39.0003L172 14.7003H168.3L180.5 42.7003H182.1L194.4 14.7003H193.2ZM148 15.5003H154.8C159.1 15.5003 161.9 18.3003 161.9 22.7003C161.9 27.1003 159.1 29.9003 154.8 29.9003H148V15.5003ZM165.1 39.7003L161.5 33.6003C160.7 32.2003 159.1 31.2003 157.2 30.6003C162.1 30.0003 165.6 26.8003 165.6 22.7003C165.6 18.1003 161.2 14.7003 155.4 14.7003H144.4V42.7003H148V30.7003H154.8C155.8 31.2003 156.7 32.0003 157.2 32.9003L161.4 40.3003C161.9 41.1003 162.6 42.0003 163.5 42.6003H167.6C166.8 42.1003 165.8 40.9003 165.1 39.7003ZM123.1 41.9003V28.9003H135.6V28.1003H123.1V15.5003H138.8V14.7003H119.5V42.7003H139.2V41.9003H123.1V41.9003ZM103.9 43.1003C109.8 43.1003 114.1 40.1003 114.1 35.4003C114.1 30.6003 109.7 28.9003 105.1 27.2003C101.1 25.6003 97.0997 24.0003 97.0997 20.6003C97.0997 17.6003 100.2 15.2003 104.4 15.2003C108.8 15.2003 112.1 17.9003 112.1 21.6003H113C113 17.5003 109.1 14.4003 104 14.4003C98.3997 14.4003 94.2997 17.5003 94.2997 22.0003C94.2997 26.8003 99.1997 28.8003 103.2 30.4003C107.5 32.1003 111.2 33.6003 111.2 37.0003C111.2 40.1003 108 42.3003 103.4 42.3003C98.3997 42.3003 94.4997 39.4003 94.4997 35.5003H93.5997C93.5997 39.8003 98.1997 43.1003 103.9 43.1003ZM86.8997 14.7003V37.9003L67.8997 14.7003H64.8997V42.7003H65.8997V17.6003L86.5997 42.7003H87.9997V14.7003H86.8997V14.7003ZM44.5997 42.3003C38.0997 42.3003 33.7997 36.9003 33.7997 28.7003C33.7997 20.5003 38.0997 15.1003 44.5997 15.1003C51.1997 15.1003 55.4997 20.5003 55.4997 28.7003C55.4997 36.9003 51.1997 42.3003 44.5997 42.3003ZM44.5997 43.1003C52.9997 43.1003 59.1997 36.9003 59.1997 28.7003C59.1997 20.5003 52.9997 14.3003 44.5997 14.3003C36.2997 14.3003 30.0997 20.5003 30.0997 28.7003C30.0997 36.9003 36.2997 43.1003 44.5997 43.1003ZM15.5997 43.1003C20.7997 43.1003 24.9997 40.5003 26.6997 37.0003H25.7997C23.9997 40.1003 20.5997 42.1003 16.2997 42.1003C9.29968 42.1003 4.59968 36.9003 4.59968 28.7003C4.59968 20.6003 9.19968 15.4003 16.4997 15.4003C21.7997 15.4003 25.5997 18.2003 25.5997 21.6003H26.4997C26.4997 17.6003 21.8997 14.4003 15.6997 14.4003C7.19968 14.4003 0.999679 20.7003 0.999679 28.8003C0.799679 37.0003 7.19968 43.1003 15.5997 43.1003Z" fill="white"></path>
						<path d="M249.5 68.7002V76.3002C248.4 78.7002 245.6 80.1002 241.8 80.1002C234.8 80.1002 230.3 74.7002 230.3 66.6002C230.3 58.3002 234.9 53.1002 242.4 53.1002C247.6 53.1002 251.3 55.8002 251.3 59.4002H252.2C252.2 55.2002 247.7 52.2002 241.6 52.2002C232.9 52.2002 226.5 58.4002 226.5 66.6002C226.5 74.8002 232.9 81.0002 241.4 81.0002C245.3 81.0002 248.7 79.7002 250.3 77.8002L252.6 80.6002H253V68.8002H249.5V68.7002Z" fill="white"></path>
						<path d="M262.2 79.8001V66.8001H274.7V66.0001H262.2V53.4001H277.9V52.6001H258.6V80.6001H278.3V79.8001H262.2Z" fill="white"></path>
						<path d="M304.6 52.6001V75.8001L285.5 52.6001H282.5V80.6001H283.5V55.5001L304.2 80.6001H305.5V52.6001H304.6Z" fill="white"></path>
						<path d="M315.6 79.8001V66.8001H328.2V66.0001H315.6V53.4001H331.4V52.6001H312.1V80.6001H331.8V79.8001H315.6Z" fill="white"></path>
						<path d="M358.799 52.6001L348.199 76.9001L337.599 52.6001H333.899L346.099 80.6001H347.699L359.899 52.6001H358.799Z" fill="white"></path>
						<path d="M366.9 79.8001V66.8001H379.4V66.0001H366.9V53.4001H382.6V52.6001H363.3V80.6001H383V79.8001H366.9Z" fill="white"></path>
						<path d="M184.3 79.8002V66.8002H196.8V66.0002H184.3V53.4002H200V52.6002H180.7V80.6002H200.4V79.8002H184.3V79.8002ZM163.6 81.0002C170.5 81.0002 174.7 76.7002 174.7 70.2002V52.6002H173.7V70.1002C173.7 75.9002 170.1 79.7002 164.4 79.7002C158.7 79.7002 154.9 75.9002 154.9 70.1002V52.6002H151.3V69.5002C151.4 76.4002 156.5 81.0002 163.6 81.0002ZM121.1 66.6002C121.1 58.4002 125.4 53.0002 131.9 53.0002C138.5 53.0002 142.8 58.4002 142.8 66.6002C142.8 74.8002 138.5 80.2002 131.9 80.2002C125.4 80.2002 121.1 74.8002 121.1 66.6002ZM147.7 82.8002C147.7 85.6002 146.1 87.2002 143.2 87.2002C140.5 87.2002 138.1 85.5002 135.6 83.8002C134.1 82.8002 132.6 81.8002 131 81.0002C131.3 81.0002 131.6 81.0002 131.9 81.0002C140.3 81.0002 146.5 74.8002 146.5 66.6002C146.5 58.4002 140.3 52.2002 131.9 52.2002C123.6 52.2002 117.4 58.4002 117.4 66.6002C117.4 73.0002 121.1 78.1002 126.7 80.1002C123.7 80.3002 121.2 82.5002 121.2 85.4002H122.1C122.1 82.9002 124.2 81.0002 126.6 81.0002C129.3 81.0002 131.6 83.0002 134.1 85.1002C136.7 87.4002 139.3 89.7002 142.6 89.7002C146.3 89.7002 148.7 87.0002 148.7 82.8002H147.7V82.8002ZM108.9 80.6002H112.5V52.6002H108.9V80.6002ZM93.9002 81.0002C99.8002 81.0002 104.1 78.0002 104.1 73.3002C104.1 68.5002 99.7002 66.8002 95.1002 65.1002C91.1002 63.5002 87.1002 61.9002 87.1002 58.5002C87.1002 55.5002 90.2002 53.1002 94.4002 53.1002C98.8002 53.1002 102.1 55.8002 102.1 59.5002H103C103 55.4002 99.1002 52.3002 94.0002 52.3002C88.4002 52.3002 84.3002 55.4002 84.3002 59.9002C84.3002 64.7002 89.2002 66.7002 93.2002 68.3002C97.5002 70.0002 101.2 71.5002 101.2 74.9002C101.2 78.0002 98.0002 80.2002 93.4002 80.2002C88.4002 80.2002 84.5002 77.3002 84.5002 73.4002H83.6002C83.7002 77.7002 88.2002 81.0002 93.9002 81.0002ZM68.5002 81.0002C75.4002 81.0002 79.6002 76.7002 79.6002 70.2002V52.6002H78.6002V70.1002C78.6002 75.9002 75.0002 79.7002 69.3002 79.7002C63.6002 79.7002 59.8002 75.9002 59.8002 70.1002V52.6002H56.2002V69.5002C56.4002 76.4002 61.4002 81.0002 68.5002 81.0002ZM46.1002 52.6002L35.9002 69.5002L25.6002 52.6002H21.7002V80.6002H22.7002V54.4002L34.2002 73.3002H34.8002L46.3002 54.4002V80.6002H49.9002V52.6002H46.1002Z" fill="white"></path>
						<path d="M220.9 61.1001H214V54.5001H213.6V61.1001H207V52.8001H206.6V63.0001H221.4V52.6001H221V61.1001H220.9ZM220.9 75.3001V78.6001H207V75.3001C207 71.6001 209.8 69.1001 214 69.1001C218.2 69.1001 220.9 71.6001 220.9 75.3001ZM206.5 75.1001V80.6001H221.3V75.1001C221.3 70.6001 218.1 67.2001 213.9 67.2001C209.7 67.2001 206.5 70.6001 206.5 75.1001Z" fill="white"></path>
						<path d="M16.4 61.1001H9.5V54.5001H9.1V61.1001H2.4V52.8001H2V63.0001H16.8V52.6001H16.4V61.1001V61.1001ZM16.4 75.3001V78.6001H2.4V75.3001C2.4 71.6001 5.2 69.1001 9.4 69.1001C13.6 69.1001 16.4 71.6001 16.4 75.3001ZM2 75.1001V80.6001H16.8V75.1001C16.8 70.6001 13.6 67.2001 9.4 67.2001C5.2 67.2001 2 70.6001 2 75.1001Z" fill="white"></path>
						<path d="M317.1 47.6001L325.3 52.8001H326.8L318.6 47.6001H317.1Z" fill="white"></path>
					</svg>